<svg xmlns="http://www.w3.org/2000/svg" width="26" height="15" viewBox="0 0 26 15">
    <g fill="none" fill-rule="evenodd">
        <g fill-rule="nonzero" stroke="#FFF" stroke-width="2.258">
            <g>
                <g>
                    <path d="M5.833 0c2.148 0 4.093 1.944 5.834 5.833-1.741 3.89-3.686 5.834-5.834 5.834C2.612 11.667 0 9.055 0 5.833 0 2.612 2.612 0 5.833 0zM17.5 0c3.222 0 5.833 2.612 5.833 5.833 0 3.222-2.611 5.834-5.833 5.834-2.148 0-4.092-1.945-5.833-5.834C13.407 1.944 15.352 0 17.5 0z" transform="translate(-86.000000, -333.000000) translate(87.333333, 324.000000) translate(0.000000, 10.424731)"/>
                </g>
            </g>
        </g>
    </g>
</svg>
