<svg width="24" height="24" viewBox="0 0 24 24" fill="none" xmlns="http://www.w3.org/2000/svg">
<g id="close">
<g id="ic_close_24px copy">
<path id="Path" d="M19.74 4.25998C19.4346 3.95464 18.9396 3.95464 18.6342 4.25998L12 10.8943L5.3657 4.25998C5.06036 3.95464 4.5653 3.95464 4.25995 4.25998C3.95461 4.56533 3.95461 5.06039 4.25995 5.36573L10.8942 12L4.25995 18.6343C3.95461 18.9396 3.95461 19.4347 4.25995 19.74C4.5653 20.0454 5.06036 20.0454 5.3657 19.74L12 13.1058L18.6342 19.74C18.9396 20.0454 19.4346 20.0454 19.74 19.74C20.0453 19.4347 20.0453 18.9396 19.74 18.6343L13.1057 12L19.74 5.36573C20.0453 5.06039 20.0453 4.56533 19.74 4.25998Z" fill="white" fill-opacity="0.4"/>
</g>
</g>
</svg>
