<svg xmlns="http://www.w3.org/2000/svg" width="22" height="22" viewBox="0 0 22 22">
    <g fill="none" fill-rule="evenodd">
        <g fill="#FFF" fill-rule="nonzero">
            <g>
                <g>
                    <g>
                        <path d="M1.167 12.858c.644 0 1.166.523 1.166 1.167v2.414c0 1.23.998 2.228 2.228 2.228h2.566c.644 0 1.166.522 1.166 1.166 0 .645-.522 1.167-1.166 1.167H4.56C2.04 21 0 18.958 0 16.44v-2.415c0-.644.522-1.167 1.167-1.167zm18.666-.046c.645 0 1.167.522 1.167 1.166v2.461C21 18.96 18.958 21 16.44 21h-2.448c-.644 0-1.166-.522-1.166-1.167 0-.644.522-1.166 1.166-1.166h2.447c1.23 0 2.228-.998 2.228-2.228v-2.46c0-.645.522-1.167 1.166-1.167zm-3.394 1.082c.469 0 .849.38.849.848 0 .469-.38.849-.849.849H4.561c-.469 0-.849-.38-.849-.849 0-.468.38-.848.849-.848h11.878zm0-4.242c.469 0 .849.38.849.848 0 .469-.38.848-.849.848H4.561c-.469 0-.849-.38-.849-.848 0-.469.38-.848.849-.848h11.878zm0-9.652C18.96 0 21 2.042 21 4.56v3.448c0 .644-.522 1.166-1.167 1.166-.644 0-1.166-.522-1.166-1.166V4.56c0-1.23-.998-2.228-2.228-2.228h-2.536c-.645 0-1.167-.522-1.167-1.166 0-.645.522-1.167 1.167-1.167h2.536zM7.101 0c.644 0 1.167.522 1.167 1.167 0 .644-.523 1.166-1.167 1.166H4.56c-1.23 0-2.228.998-2.228 2.228v2.613c0 .645-.522 1.167-1.166 1.167C.522 8.34 0 7.819 0 7.174V4.561C0 2.04 2.042 0 4.56 0H7.1zm9.338 5.41c.469 0 .849.379.849.848 0 .468-.38.848-.849.848H4.561c-.469 0-.849-.38-.849-.848 0-.469.38-.849.849-.849h11.878z" transform="translate(-88.000000, -389.000000) translate(87.333333, 324.000000) translate(1.166667, 0.000000) translate(0.000000, 65.500000)"/>
                    </g>
                </g>
            </g>
        </g>
    </g>
</svg>
